<svg xmlns="http://www.w3.org/2000/svg" xmlns:xlink="http://www.w3.org/1999/xlink" width="16px" height="16px" viewBox="0 0 20 20" version="1.1">
    <!-- Generator: sketchtool 63.1 (101010) - https://sketch.com -->
    <title>180EEDEC-E26D-4CD4-9F97-E184296965BB</title>
    <desc>Created with sketchtool.</desc>
    <g id="Page-1" stroke="none" stroke-width="1" fill="none" fill-rule="evenodd">
        <g id="setup_company_wizard_step4_manage_users2" transform="translate(-1136.000000, -376.000000)">
            <g id="search" transform="translate(0.000000, 107.000000)">
                <g id="assessmentEntry" transform="translate(400.000000, 184.000000)">
                    <g id="Row1-Copy">
                        <g transform="translate(0.000000, 66.000000)">
                            <g id="icStepCancel" transform="translate(736.000000, 19.000000)">
                                <circle id="Oval" fill="#FFFFFF" cx="9.5" cy="9.5" r="7.125"/>
                                <path d="M9.5,0 C14.7681818,0 19,4.23181818 19,9.5 C19,14.7681818 14.7681818,19 9.5,19 C4.23181818,19 0,14.7681818 0,9.5 C0,4.23181818 4.23181818,0 9.5,0 Z M13.1920455,5.35454545 C13.0193182,5.18181818 12.7602273,5.18181818 12.5875,5.35454545 L12.5875,5.35454545 L12.5443182,5.35454545 L9.63012497,8.387 L6.71694315,5.35454545 L6.67376133,5.35454545 L6.60527767,5.29786932 C6.43761076,5.18451705 6.22035224,5.20340909 6.06921588,5.35454545 L6.06921588,5.35454545 L5.46467042,5.95909091 L5.40799429,6.0133212 C5.29464201,6.15205966 5.31353406,6.36931818 5.46467042,6.52045455 L5.46467042,6.52045455 L8.44912497,9.617 L5.68346535,12.4965792 C5.6783179,12.5019376 5.67329557,12.5074148 5.66840241,12.5130064 C5.49382433,12.7125026 5.51402446,13.0157497 5.71352068,13.1903278 L5.71352068,13.1903278 L6.28295455,13.6886364 C6.32613636,13.775 6.45568182,13.8181818 6.58522727,13.8181818 C6.71477273,13.8181818 6.80113636,13.775 6.8875,13.6886364 L6.8875,13.6886364 L9.63012497,10.842 L12.3737613,13.6886364 L12.4392088,13.7453125 C12.5060057,13.793892 12.578875,13.8181818 12.6760341,13.8181818 C12.8055795,13.8181818 12.935125,13.775 12.9783068,13.6886364 L12.9783068,13.6886364 L13.5477407,13.1903278 L13.6075776,13.1276884 C13.7493211,12.9496423 13.7480394,12.6903363 13.5928589,12.5130064 L13.5928589,12.5130064 L13.5854228,12.5047053 L13.5854228,12.5047053 L13.577796,12.4965792 L10.811125,9.617 L13.7965909,6.52045455 C13.9693182,6.34772727 13.9693182,6.08863636 13.7965909,5.95909091 L13.7965909,5.95909091 Z" id="Combined-Shape" fill="#CD3C2E" fill-rule="nonzero"/>
                            </g>
                        </g>
                    </g>
                </g>
            </g>
        </g>
    </g>
</svg>