<svg xmlns="http://www.w3.org/2000/svg" version="1.1" viewBox="0 0 1600 1600" width="18" height="18">
<path transform="translate(0)" d="m0 0h1600v1600h-1600v-1600z" fill="none"/>
<path transform="translate(840 201)" d="m0 0c4.4 0.928 8.88 1.41 13.3 1.97 3.02 0.53 5.38 1.42 8.2 2.56 2.24 0.453 4.49 0.866 6.75 1.25 8.07 1.49 15.6 4.13 23.2 7 3.03 1.12 6.09 2.14 9.15 3.18 7.54 2.7 14.7 6.06 21.9 9.56 1.03 0.495 2.06 0.99 3.12 1.5 23 11.3 44.3 25.8 62.9 43.5 1.35 1.18 2.7 2.34 4.06 3.5 8.01 6.98 15.2 14.6 21.8 22.9 2.07 2.56 4.23 5.01 6.45 7.45 2.91 3.24 5.36 6.5 7.69 10.2 1.12 1.61 2.24 3.21 3.38 4.81 1.21 1.73 2.42 3.46 3.62 5.19 0.496 0.71 0.993 1.42 1.5 2.15 7.96 11.6 14.4 24.2 20.5 36.8 0.463 0.955 0.926 1.91 1.4 2.89 21.8 46.5 25 95.2 24.6 146-0.0679 8.62-0.107 17.2-0.129 25.9-0.00327 1.26-0.00654 2.52-0.0099 3.82-0.00653 2.58-0.0129 5.15-0.0193 7.73-0.0425 17.3-0.1 34.5-0.257 51.8-0.106 11.7-0.159 23.4-0.15 35.1 0.00256 6.17-0.0215 12.3-0.111 18.5-0.0836 5.79-0.0964 11.6-0.0564 17.4 0.00228 2.11-0.0208 4.23-0.0721 6.34-0.234 10.2-0.119 17.9 7.14 25.6 2.58 2.45 5.24 4.74 8.01 6.96 2.03 1.67 3.74 3.5 5.43 5.51 0.504 0.597 1.01 1.19 1.53 1.81 0.853 1.02 0.853 1.02 1.72 2.07 1.24 1.44 1.24 1.44 2.5 2.91 12.7 14.8 24 30.4 34.4 46.9 1.71 2.67 3.46 5.29 5.25 7.9 3.29 4.92 6.04 10.1 8.81 15.3 0.671 1.24 1.34 2.48 2.02 3.72 3.2 5.91 6.36 11.8 8.99 18 1.26 2.92 2.63 5.79 3.99 8.67 2.68 5.78 4.91 11.6 7 17.6 0.495 1.34 0.995 2.67 1.5 4 1.53 4.05 2.98 8.12 4.44 12.2 0.792 2.09 1.66 4.16 2.57 6.2 1.48 3.57 2.47 6.98 3.37 10.7 0.164 0.681 0.329 1.36 0.498 2.06 0.357 1.48 0.711 2.97 1.06 4.45 0.584 2.45 1.19 4.89 1.79 7.33 6.98 28.4 11.8 57.2 12 86.5 0.0097 1.15 0.0194 2.31 0.0294 3.49 0.0248 3.71 0.0375 7.42 0.0448 11.1 0.00262 1.27 0.00524 2.54 0.00793 3.84 0.00456 20.6-1.01 40.7-4.32 61-0.264 1.67-0.264 1.67-0.534 3.37-1.67 10.3-3.73 20.5-6.47 30.6-0.34 1.35-0.679 2.71-1.02 4.06-2.39 9.5-5.13 18.9-8.11 28.2-0.337 1.06-0.673 2.12-1.02 3.21-1.72 5.31-3.56 10.4-5.85 15.5-0.735 1.72-1.47 3.43-2.2 5.15-4.93 11.5-10.1 22.7-15.8 33.8-0.653 1.32-1.31 2.63-1.96 3.95-4.8 9.61-10 19-16.4 27.7-1.81 2.54-3.46 5.14-5.11 7.79-3.06 4.87-6.36 9.5-9.78 14.1-1.39 1.91-2.7 3.82-3.97 5.82-2 2.9-4.32 5.14-6.81 7.62-1.32 1.75-2.56 3.53-3.79 5.35-1.27 1.73-2.67 3.15-4.21 4.65-1.05 1.18-2.09 2.37-3.12 3.56-1.29 1.48-2.58 2.96-3.88 4.44l-2.18 2.5c-4.12 4.66-8.3 8.96-13 13-3.32 2.83-6.24 5.82-8.9 9.27-3.91 4.81-9.05 8.42-13.9 12.2-2.63 2.16-5.25 4.32-7.77 6.6-0.611 0.545-1.22 1.09-1.85 1.65-0.549 0.5-1.1 1-1.66 1.52-1.71 1.23-1.71 1.23-3.86 1.72-0.611 0.17-1.22 0.34-1.85 0.516-0.33 0.99-0.66 1.98-1 3-1.33 0.958-2.68 1.9-4.07 2.77-2.3 1.46-4.52 3.03-6.74 4.6-3.38 2.37-6.77 4.74-10.2 7.06-0.722 0.494-1.44 0.987-2.19 1.5-1.81 1.07-1.81 1.07-3.81 1.07v2l-1.72 0.953c-0.772 0.428-1.54 0.856-2.34 1.3l-2.48 1.37c-2.15 1.2-4.28 2.44-6.4 3.69-3.06 1.69-3.06 1.69-5.06 1.69v2c-0.969 0.485-1.94 0.969-2.94 1.47-0.64 0.32-1.28 0.64-1.94 0.97-1.43 0.714-2.86 1.43-4.29 2.14-3.77 1.88-7.53 3.77-11.3 5.66-0.711 0.358-1.42 0.715-2.15 1.08-1.36 0.685-2.72 1.37-4.08 2.06-3.39 1.7-6.78 3.25-10.3 4.62-1.32 0.599-2.63 1.2-3.94 1.81-5.11 2.29-10.4 4.11-15.6 5.96-2.88 1.03-5.71 2.12-8.54 3.29-7.79 3.17-15.8 5.63-23.9 7.94-1.6 0.478-1.6 0.478-3.24 0.965-8.33 2.46-16.7 4.41-25.2 6.04-0.653 0.126-1.31 0.252-1.98 0.382-22.2 4.26-45 7.76-67.7 7.79-1.54 0.00649-1.54 0.00649-3.1 0.0131-3.29 0.01-6.57 0.0102-9.86 0.00642-1.13-0.00127-2.25-0.00254-3.41-0.00385-37.9-0.0817-74-4.75-111-15.2-0.969-0.26-1.94-0.521-2.94-0.789-15.7-4.27-31.3-9.56-46.1-16.2-0.84-0.374-1.68-0.749-2.55-1.13-2.97-1.32-5.93-2.66-8.89-3.99-0.961-0.432-1.92-0.865-2.91-1.31-4.37-1.99-8.59-3.98-12.7-6.56-0.908-0.454-1.82-0.908-2.75-1.38-7.64-3.82-15-8.19-22.2-12.6-0.966-0.574-1.93-1.15-2.93-1.74-13-7.83-25.4-16.6-37.1-26.3-1.58-1.25-3.17-2.5-4.75-3.75-6.02-4.82-11.9-9.85-17.7-14.9-1.33-1.15-2.68-2.29-4.03-3.43-3.75-3.19-7.03-6.5-10.2-10.3-1.98-2.35-4.16-4.48-6.37-6.62l-5-5-1.88-1.81c-2.54-2.61-4.93-5.34-7.31-8.09-1.19-1.38-2.39-2.74-3.6-4.1-0.818-0.926-0.818-0.926-1.65-1.87-0.494-0.554-0.987-1.11-1.5-1.68-1.07-1.45-1.07-1.45-1.07-3.45h-2c-0.248-0.578-0.495-1.16-0.75-1.75-1.13-2.29-1.13-2.29-2.93-3.86-3.27-3.38-5.9-7.14-8.63-11-0.58-0.807-1.16-1.61-1.76-2.45-4.19-5.87-8.14-11.9-11.9-18-0.558-0.852-1.12-1.7-1.69-2.58-4.24-6.49-7.93-13.2-11.5-20-1.52-2.86-3.13-5.61-4.8-8.38-7-13.1-13.6-26.9-18.2-41-0.769-2.26-0.769-2.26-2.75-5-0.507-1.44-0.96-2.9-1.38-4.38-0.255-0.883-0.51-1.77-0.773-2.68-0.422-1.46-0.422-1.46-0.852-2.95-0.662-2.19-1.33-4.38-2-6.56-0.309-1.01-0.619-2.02-0.938-3.07-0.566-1.79-1.14-3.59-1.75-5.37-2.12-6.15-3.74-12.4-5.25-18.7-0.389-1.63-0.389-1.63-0.786-3.29-2.29-9.76-4.13-19.6-5.81-29.4-0.432-2.41-0.933-4.79-1.45-7.17-1.12-5.6-1.69-11.2-2.12-16.9-0.126-1.62-0.126-1.62-0.255-3.27-0.798-11.1-0.939-22.2-0.897-33.4 0.0107-3.33 1.37e-5 -6.66-0.0127-9.99-0.0079-11.3 0.319-22.6 1.16-33.9 0.0775-1.05 0.155-2.11 0.235-3.19 0.526-6.38 1.53-12.5 2.87-18.8 0.396-2.26 0.78-4.53 1.15-6.79 2.08-12.6 4.17-25 7.85-37.2l0.961-3.47c3.96-14.3 8.9-28.2 14.4-42 0.426-1.08 0.426-1.08 0.86-2.18 4.11-10.4 8.5-20.5 13.8-30.4 0.694-1.38 1.38-2.76 2.07-4.14 9.5-19.1 21.3-36.9 33.9-54.1 1.39-1.91 2.78-3.82 4.16-5.73 3.49-4.84 6.99-9.56 10.9-14.1 0.712-0.831 0.712-0.831 1.44-1.68 3.81-4.41 7.74-8.72 11.7-13 0.503-0.547 1.01-1.09 1.52-1.66 7.94-8.59 7.94-8.59 11.5-11.3 2.73-3.48 2.42-6.83 2.36-11.1 0.00271-0.885 0.00542-1.77 0.00822-2.68 0.00425-2.97-0.0201-5.94-0.0443-8.91-0.00276-2.13-0.00375-4.25-0.0031-6.38-0.00313-5.78-0.0308-11.6-0.0625-17.3-0.0287-6.04-0.034-12.1-0.0415-18.1-0.0176-11.4-0.0548-22.9-0.0996-34.3-0.0652-16.8-0.105-33.6-0.14-50.4-0.00257-1.23-0.00514-2.46-0.00779-3.73-0.0051-2.45-0.0101-4.9-0.0151-7.36-0.0153-7.2-0.0377-14.4-0.0661-21.6-0.017-4.47-0.0301-8.94-0.0425-13.4-0.0067-2.08-0.0151-4.16-0.0254-6.24-0.0138-2.83-0.0216-5.66-0.028-8.48-0.00564-0.835-0.0113-1.67-0.0171-2.53-0.00122-1.92 0.0488-3.84 0.11-5.76 0.33-0.33 0.66-0.66 1-1 0.122-1.5 0.18-3 0.211-4.5 0.0261-0.956 0.0522-1.91 0.0791-2.9 0.028-1.04 0.0561-2.09 0.085-3.16 1.11-31.2 6.73-63.8 19.6-92.4 0.578-1.41 1.15-2.82 1.72-4.23 0.293-0.722 0.585-1.44 0.887-2.19 0.599-1.48 1.2-2.96 1.79-4.45 1.6-3.94 3.35-7.52 5.61-11.1 1-2 2-4 3-6 4.37-8.21 8.9-16.3 14.4-23.8 1.2-1.65 2.36-3.34 3.49-5.04 2.33-3.5 4.74-6.94 7.18-10.4 0.434-0.616 0.868-1.23 1.31-1.87 2.04-2.87 4.05-5.55 6.62-7.95 1.19-1.42 2.37-2.84 3.55-4.26 4.32-5.2 8.6-10.1 13.8-14.4 2.35-1.98 4.48-4.16 6.62-6.37 1.67-1.67 3.33-3.33 5-5 0.763-0.78 1.53-1.56 2.31-2.36 2.64-2.59 5.34-4.97 8.19-7.32 0.918-0.767 1.84-1.53 2.78-2.32 2.54-1.86 4.75-2.98 7.72-3.99v-2c1.96-1.4 3.97-2.72 6-4 1.07-0.743 2.14-1.49 3.25-2.25 2.75-1.75 2.75-1.75 4.75-1.75v-2c0.655-0.352 1.31-0.704 1.98-1.07 6.26-3.39 12.4-6.92 18.5-10.6 2.53-1.32 2.53-1.32 5.53-1.32v-2c3.19-1.48 6.38-2.96 9.58-4.43 1.89-0.868 3.77-1.74 5.66-2.62 11.5-5.28 23.4-10 35.8-13 1.95-0.491 3.9-0.982 5.85-1.47 2.08-0.524 4.17-1.04 6.26-1.55 2.3-0.569 4.59-1.16 6.88-1.79 30.1-8.12 69.9-10.8 100-3.72z" fill="#C2E0A7"/>
<path transform="translate(788 237)" d="m0 0c0.922-0.00333 1.84-0.00666 2.79-0.0101 1.94-0.00503 3.88-0.00741 5.82-0.00725 2.91-0.00217 5.82-0.0203 8.73-0.0393 15.3-0.0474 30 1.1 45 4.47 0.964 0.214 1.93 0.428 2.92 0.648 14 3.2 27.4 7.76 40.7 13.1 1.3 0.489 1.3 0.489 2.63 0.988 6.45 2.45 12.4 5.62 18.4 9.01 1.11 0.601 1.11 0.601 2.24 1.21 14.4 7.82 27.4 17.1 40 27.5 1.86 1.53 3.73 3.04 5.62 4.54 4.97 3.95 9.46 7.87 13.5 12.8 1.68 2.04 1.68 2.04 3.93 4.18 3.24 3.29 6.12 6.78 9.01 10.4 0.86 1.07 0.86 1.07 1.74 2.15 7.01 8.73 13.4 17.7 19.1 27.2 1.39 2.3 2.82 4.55 4.3 6.79 6.84 11 12.1 23.1 16.5 35.2 0.282 0.774 0.565 1.55 0.855 2.35 11.6 32.2 15.4 65.4 15.2 99.4-0.00458 1.57-0.00876 3.14-0.0126 4.72-0.0137 4.83-0.0381 9.67-0.0636 14.5-0.00718 1.49-0.0143 2.98-0.0213 4.47-0.0462 9.55-0.111 19.1-0.181 28.7-0.029 4-0.0564 7.99-0.0841 12-0.0521 7.5-0.105 15-0.159 22.5-0.0615 8.57-0.121 17.1-0.181 25.7-0.123 17.6-0.247 35.1-0.373 52.7-3.65-1.4-6.58-2.95-9.75-5.25-8.23-5.88-16.7-11.4-25.2-16.8-0.573-0.368-1.15-0.736-1.74-1.11-5.6-3.56-11.4-6.78-17.2-9.95-0.938-0.516-1.88-1.03-2.84-1.56-5.03-2.74-10.1-5.28-15.3-7.54-2.21-0.967-4.33-2.07-6.46-3.2-6.9-3.48-14.2-6.02-21.4-8.62-1.06-0.381-1.06-0.381-2.14-0.771-4.27-1.53-8.54-3.04-12.8-4.52-1.93-0.669-3.85-1.34-5.78-2.02-19-6.53-39-11.8-59-14.2-2.51-0.373-4.83-0.851-7.28-1.45-5.54-1.24-11.1-1.73-16.7-2.15-1.69-0.126-1.69-0.126-3.41-0.255-12.3-0.839-24.5-0.938-36.8-0.897-3.79 0.0108-7.58 1.04e-6 -11.4-0.0127-17.5-0.0108-35.2 0.123-52.5 3.81-3.01 0.621-6.05 1.06-9.09 1.51-9.57 1.4-18.9 3.37-28.2 5.96-1.07 0.296-2.14 0.592-3.25 0.897-3.69 1.03-7.38 2.06-11.1 3.1-1.18 0.332-2.36 0.664-3.58 1.01-6.29 1.8-12.5 3.76-18.6 6.06-2.35 0.867-4.71 1.66-7.09 2.42-4.93 1.63-9.68 3.63-14.4 5.7-1.36 0.586-1.36 0.586-2.74 1.18-5.96 2.59-11.9 5.25-17.8 8-1.03 0.482-1.03 0.482-2.08 0.973-3.6 1.71-7.02 3.58-10.4 5.65-2.05 1.08-4.11 2.14-6.19 3.19-1.05 0.53-2.09 1.06-3.17 1.61-2.64 1.21-2.64 1.21-4.64 1.21v2c-0.522 0.28-1.04 0.559-1.58 0.848-8.88 4.84-17.3 10.3-25.6 16.1-1.78 1.07-1.78 1.07-3.78 1.07v2c-4.38 3-4.38 3-7 3v2c-1.65 0.33-3.3 0.66-5 1-1.54-3.08-1.14-6.32-1.13-9.71-0.00227-0.805-0.00453-1.61-0.00687-2.44-0.00636-2.71-0.00551-5.43-0.00469-8.14-0.00299-1.94-0.00639-3.88-0.0102-5.82-0.00886-5.28-0.0112-10.6-0.0118-15.9-9.49e-4 -4.41-0.00463-8.83-0.00817-13.2-0.00815-10.4-0.0106-20.8-0.00987-31.3 5.99e-4 -10.7-0.00992-21.5-0.0257-32.2-0.0131-9.22-0.0184-18.4-0.0178-27.7 2.54e-4 -5.5-0.00256-11-0.0132-16.5-0.00973-5.19-0.00973-10.4-0.00248-15.6 0.00104-1.9-0.00128-3.79-0.00736-5.69-0.0305-10.2 0.352-19.9 2.25-29.9 0.234-1.6 0.461-3.19 0.676-4.79 1.57-11 4.04-21.6 7.32-32.2 0.33-1.08 0.66-2.16 1-3.27 4.22-13.1 9.68-25.5 16-37.7 0.451-0.938 0.902-1.88 1.37-2.84 2.15-4.16 4.6-8.11 7.07-12.1 0.958-1.55 1.92-3.1 2.87-4.65 0.459-0.744 0.917-1.49 1.39-2.25 1.2-1.99 2.34-4 3.46-6.04 1.54-2.62 2.73-4.07 4.84-6.12 1.79-2.24 3.56-4.48 5.31-6.75 12.2-15.6 12.2-15.6 19.9-21.9 2.93-2.25 2.93-2.25 4.81-5.38h2c0.222-0.567 0.443-1.13 0.672-1.72 1.73-2.98 3.89-4.63 6.58-6.78 0.985-0.786 1.97-1.57 2.98-2.38 2.85-2.18 5.76-4.16 8.77-6.12 0.654-0.679 0.654-0.679 1.32-1.37 3.98-3.86 9.04-6.63 13.7-9.63 0.994-0.643 1.99-1.29 3.01-1.95 14-8.82 28.5-16.3 44-22.1 0.869-0.343 1.74-0.686 2.63-1.04 22.9-8.83 47.8-14.1 72.4-14.1z" fill="#FCFDFF"/>
<path transform="translate(840 201)" d="m0 0c4.4 0.928 8.88 1.41 13.3 1.97 3.02 0.53 5.38 1.42 8.2 2.56 2.24 0.453 4.49 0.866 6.75 1.25 8.07 1.49 15.6 4.13 23.2 7 3.03 1.12 6.09 2.14 9.15 3.18 7.54 2.7 14.7 6.06 21.9 9.56 1.03 0.495 2.06 0.99 3.12 1.5 23 11.3 44.3 25.8 62.9 43.5 1.35 1.18 2.7 2.34 4.06 3.5 8.01 6.98 15.2 14.6 21.8 22.9 2.07 2.56 4.23 5.01 6.45 7.45 2.91 3.24 5.36 6.5 7.69 10.2 1.12 1.61 2.24 3.21 3.38 4.81 1.21 1.73 2.42 3.46 3.62 5.19 0.496 0.71 0.993 1.42 1.5 2.15 7.96 11.6 14.4 24.2 20.5 36.8 0.463 0.955 0.926 1.91 1.4 2.89 21.8 46.5 25 95.2 24.6 146-0.0679 8.62-0.107 17.2-0.129 25.9-0.00327 1.26-0.00654 2.52-0.0099 3.82-0.00653 2.58-0.0129 5.15-0.0193 7.73-0.0425 17.3-0.1 34.5-0.257 51.8-0.106 11.7-0.159 23.4-0.15 35.1 0.00256 6.17-0.0215 12.3-0.111 18.5-0.0836 5.79-0.0964 11.6-0.0564 17.4 0.00228 2.11-0.0208 4.23-0.0721 6.34-0.234 10.2-0.119 17.9 7.14 25.6 2.58 2.45 5.24 4.74 8.01 6.96 2.03 1.67 3.74 3.5 5.43 5.51 0.504 0.597 1.01 1.19 1.53 1.81 0.853 1.02 0.853 1.02 1.72 2.07 1.24 1.44 1.24 1.44 2.5 2.91 12.7 14.8 24 30.4 34.4 46.9 1.71 2.67 3.46 5.29 5.25 7.9 3.29 4.92 6.04 10.1 8.81 15.3 0.671 1.24 1.34 2.48 2.02 3.72 3.2 5.91 6.36 11.8 8.99 18 1.26 2.92 2.63 5.79 3.99 8.67 2.68 5.78 4.91 11.6 7 17.6 0.495 1.34 0.995 2.67 1.5 4 1.53 4.05 2.98 8.12 4.44 12.2 0.792 2.09 1.66 4.16 2.57 6.2 1.48 3.57 2.47 6.98 3.37 10.7 0.164 0.681 0.329 1.36 0.498 2.06 0.357 1.48 0.711 2.97 1.06 4.45 0.584 2.45 1.19 4.89 1.79 7.33 6.98 28.4 11.8 57.2 12 86.5 0.0097 1.15 0.0194 2.31 0.0294 3.49 0.0248 3.71 0.0375 7.42 0.0448 11.1 0.00262 1.27 0.00524 2.54 0.00793 3.84 0.00456 20.6-1.01 40.7-4.32 61-0.264 1.67-0.264 1.67-0.534 3.37-1.67 10.3-3.73 20.5-6.47 30.6-0.34 1.35-0.679 2.71-1.02 4.06-2.39 9.5-5.13 18.9-8.11 28.2-0.337 1.06-0.673 2.12-1.02 3.21-1.72 5.31-3.56 10.4-5.85 15.5-0.735 1.72-1.47 3.43-2.2 5.15-4.93 11.5-10.1 22.7-15.8 33.8-0.653 1.32-1.31 2.63-1.96 3.95-4.8 9.61-10 19-16.4 27.7-1.81 2.54-3.46 5.14-5.11 7.79-3.06 4.87-6.36 9.5-9.78 14.1-1.39 1.91-2.7 3.82-3.97 5.82-2 2.9-4.32 5.14-6.81 7.62-1.32 1.75-2.56 3.53-3.79 5.35-1.27 1.73-2.67 3.15-4.21 4.65-1.05 1.18-2.09 2.37-3.12 3.56-1.29 1.48-2.58 2.96-3.88 4.44l-2.18 2.5c-4.12 4.66-8.3 8.96-13 13-3.32 2.83-6.24 5.82-8.9 9.27-3.91 4.81-9.05 8.42-13.9 12.2-2.63 2.16-5.25 4.32-7.77 6.6-0.611 0.545-1.22 1.09-1.85 1.65-0.549 0.5-1.1 1-1.66 1.52-1.71 1.23-1.71 1.23-3.86 1.72-0.611 0.17-1.22 0.34-1.85 0.516-0.33 0.99-0.66 1.98-1 3-1.33 0.958-2.68 1.9-4.07 2.77-2.3 1.46-4.52 3.03-6.74 4.6-3.38 2.37-6.77 4.74-10.2 7.06-0.722 0.494-1.44 0.987-2.19 1.5-1.81 1.07-1.81 1.07-3.81 1.07v2l-1.72 0.953c-0.772 0.428-1.54 0.856-2.34 1.3l-2.48 1.37c-2.15 1.2-4.28 2.44-6.4 3.69-3.06 1.69-3.06 1.69-5.06 1.69v2c-0.969 0.485-1.94 0.969-2.94 1.47-0.64 0.32-1.28 0.64-1.94 0.97-1.43 0.714-2.86 1.43-4.29 2.14-3.77 1.88-7.53 3.77-11.3 5.66-0.711 0.358-1.42 0.715-2.15 1.08-1.36 0.685-2.72 1.37-4.08 2.06-3.39 1.7-6.78 3.25-10.3 4.62-1.32 0.599-2.63 1.2-3.94 1.81-5.11 2.29-10.4 4.11-15.6 5.96-2.88 1.03-5.71 2.12-8.54 3.29-7.79 3.17-15.8 5.63-23.9 7.94-1.6 0.478-1.6 0.478-3.24 0.965-8.33 2.46-16.7 4.41-25.2 6.04-0.653 0.126-1.31 0.252-1.98 0.382-22.2 4.26-45 7.76-67.7 7.79-1.54 0.00649-1.54 0.00649-3.1 0.0131-3.29 0.01-6.57 0.0102-9.86 0.00642-1.13-0.00127-2.25-0.00254-3.41-0.00385-37.9-0.0817-74-4.75-111-15.2-0.969-0.26-1.94-0.521-2.94-0.789-15.7-4.27-31.3-9.56-46.1-16.2-0.84-0.374-1.68-0.749-2.55-1.13-2.97-1.32-5.93-2.66-8.89-3.99-0.961-0.432-1.92-0.865-2.91-1.31-4.37-1.99-8.59-3.98-12.7-6.56-0.908-0.454-1.82-0.908-2.75-1.38-7.64-3.82-15-8.19-22.2-12.6-0.966-0.574-1.93-1.15-2.93-1.74-13-7.83-25.4-16.6-37.1-26.3-1.58-1.25-3.17-2.5-4.75-3.75-6.02-4.82-11.9-9.85-17.7-14.9-1.33-1.15-2.68-2.29-4.03-3.43-3.75-3.19-7.03-6.5-10.2-10.3-1.98-2.35-4.16-4.48-6.37-6.62l-5-5-1.88-1.81c-2.54-2.61-4.93-5.34-7.31-8.09-1.19-1.38-2.39-2.74-3.6-4.1-0.818-0.926-0.818-0.926-1.65-1.87-0.494-0.554-0.987-1.11-1.5-1.68-1.07-1.45-1.07-1.45-1.07-3.45h-2c-0.248-0.578-0.495-1.16-0.75-1.75-1.13-2.29-1.13-2.29-2.93-3.86-3.27-3.38-5.9-7.14-8.63-11-0.58-0.807-1.16-1.61-1.76-2.45-4.19-5.87-8.14-11.9-11.9-18-0.558-0.852-1.12-1.7-1.69-2.58-4.24-6.49-7.93-13.2-11.5-20-1.52-2.86-3.13-5.61-4.8-8.38-7-13.1-13.6-26.9-18.2-41-0.769-2.26-0.769-2.26-2.75-5-0.507-1.44-0.96-2.9-1.38-4.38-0.255-0.883-0.51-1.77-0.773-2.68-0.422-1.46-0.422-1.46-0.852-2.95-0.662-2.19-1.33-4.38-2-6.56-0.309-1.01-0.619-2.02-0.938-3.07-0.566-1.79-1.14-3.59-1.75-5.37-2.12-6.15-3.74-12.4-5.25-18.7-0.389-1.63-0.389-1.63-0.786-3.29-2.29-9.76-4.13-19.6-5.81-29.4-0.432-2.41-0.933-4.79-1.45-7.17-1.12-5.6-1.69-11.2-2.12-16.9-0.126-1.62-0.126-1.62-0.255-3.27-0.798-11.1-0.939-22.2-0.897-33.4 0.0107-3.33 1.37e-5 -6.66-0.0127-9.99-0.0079-11.3 0.319-22.6 1.16-33.9 0.0775-1.05 0.155-2.11 0.235-3.19 0.526-6.38 1.53-12.5 2.87-18.8 0.396-2.26 0.78-4.53 1.15-6.79 2.08-12.6 4.17-25 7.85-37.2l0.961-3.47c3.96-14.3 8.9-28.2 14.4-42 0.426-1.08 0.426-1.08 0.86-2.18 4.11-10.4 8.5-20.5 13.8-30.4 0.694-1.38 1.38-2.76 2.07-4.14 9.5-19.1 21.3-36.9 33.9-54.1 1.39-1.91 2.78-3.82 4.16-5.73 3.49-4.84 6.99-9.56 10.9-14.1 0.712-0.831 0.712-0.831 1.44-1.68 3.81-4.41 7.74-8.72 11.7-13 0.503-0.547 1.01-1.09 1.52-1.66 7.94-8.59 7.94-8.59 11.5-11.3 2.73-3.48 2.42-6.83 2.36-11.1 0.00271-0.885 0.00542-1.77 0.00822-2.68 0.00425-2.97-0.0201-5.94-0.0443-8.91-0.00276-2.13-0.00375-4.25-0.0031-6.38-0.00313-5.78-0.0308-11.6-0.0625-17.3-0.0287-6.04-0.034-12.1-0.0415-18.1-0.0176-11.4-0.0548-22.9-0.0996-34.3-0.0652-16.8-0.105-33.6-0.14-50.4-0.00257-1.23-0.00514-2.46-0.00779-3.73-0.0051-2.45-0.0101-4.9-0.0151-7.36-0.0153-7.2-0.0377-14.4-0.0661-21.6-0.017-4.47-0.0301-8.94-0.0425-13.4-0.0067-2.08-0.0151-4.16-0.0254-6.24-0.0138-2.83-0.0216-5.66-0.028-8.48-0.00564-0.835-0.0113-1.67-0.0171-2.53-0.00122-1.92 0.0488-3.84 0.11-5.76 0.33-0.33 0.66-0.66 1-1 0.122-1.5 0.18-3 0.211-4.5 0.0261-0.956 0.0522-1.91 0.0791-2.9 0.028-1.04 0.0561-2.09 0.085-3.16 1.11-31.2 6.73-63.8 19.6-92.4 0.578-1.41 1.15-2.82 1.72-4.23 0.293-0.722 0.585-1.44 0.887-2.19 0.599-1.48 1.2-2.96 1.79-4.45 1.6-3.94 3.35-7.52 5.61-11.1 1-2 2-4 3-6 4.37-8.21 8.9-16.3 14.4-23.8 1.2-1.65 2.36-3.34 3.49-5.04 2.33-3.5 4.74-6.94 7.18-10.4 0.434-0.616 0.868-1.23 1.31-1.87 2.04-2.87 4.05-5.55 6.62-7.95 1.19-1.42 2.37-2.84 3.55-4.26 4.32-5.2 8.6-10.1 13.8-14.4 2.35-1.98 4.48-4.16 6.62-6.37 1.67-1.67 3.33-3.33 5-5 0.763-0.78 1.53-1.56 2.31-2.36 2.64-2.59 5.34-4.97 8.19-7.32 0.918-0.767 1.84-1.53 2.78-2.32 2.54-1.86 4.75-2.98 7.72-3.99v-2c1.96-1.4 3.97-2.72 6-4 1.07-0.743 2.14-1.49 3.25-2.25 2.75-1.75 2.75-1.75 4.75-1.75v-2c0.655-0.352 1.31-0.704 1.98-1.07 6.26-3.39 12.4-6.92 18.5-10.6 2.53-1.32 2.53-1.32 5.53-1.32v-2c3.19-1.48 6.38-2.96 9.58-4.43 1.89-0.868 3.77-1.74 5.66-2.62 11.5-5.28 23.4-10 35.8-13 1.95-0.491 3.9-0.982 5.85-1.47 2.08-0.524 4.17-1.04 6.26-1.55 2.3-0.569 4.59-1.16 6.88-1.79 30.1-8.12 69.9-10.8 100-3.72zm-89.2 39.3c-0.814 0.166-1.63 0.331-2.47 0.502-12.2 2.57-24.4 5.67-35.8 10.7-1.24 0.497-2.49 0.988-3.73 1.47-15.2 6-29.6 13.5-43.3 22.5-1.21 0.766-2.42 1.53-3.63 2.29-0.631 0.398-1.26 0.795-1.91 1.2-1.23 0.774-2.46 1.54-3.69 2.31-3.33 2.12-6.04 4.35-8.77 7.2-1.61 1.33-3.23 2.65-4.88 3.94-0.871 0.692-1.74 1.38-2.64 2.1-1.49 1.18-2.98 2.35-4.47 3.52-1.37 1.1-2.7 2.27-4.02 3.44v2l-3 1c-2.73 2.51-5.1 5.12-7.44 8-2.56 3-2.56 3-5.37 5.25-3.49 2.86-6.15 6.17-8.88 9.75-0.472 0.603-0.945 1.21-1.43 1.83-2 2.58-3.85 5.11-5.53 7.92-1.36 2.25-1.36 2.25-2.78 3.64-1.7 1.74-2.84 3.47-4.1 5.56-0.464 0.766-0.928 1.53-1.41 2.32-0.715 1.2-0.715 1.2-1.45 2.42-0.945 1.57-1.89 3.13-2.84 4.7-0.464 0.772-0.927 1.54-1.41 2.34-1.32 2.18-2.68 4.33-4.05 6.47-3.35 5.34-5.79 11-8.33 16.8-0.508 1.14-1.02 2.28-1.54 3.46-4.92 11.3-9.14 22.7-12.5 34.5-0.33 1.13-0.66 2.26-1 3.42-2.29 8.11-3.79 16-4.71 24.4-0.209 1.57-0.471 3.13-0.763 4.69-1.82 10.1-1.8 20-1.77 30.2-0.00107 1.96-0.00302 3.92-0.00575 5.88-0.00482 5.28 0.00276 10.6 0.013 15.8 0.00882 5.54 0.00702 11.1 0.00664 16.6 9.34e-4 9.28 0.00959 18.6 0.0233 27.8 0.0158 10.7 0.021 21.5 0.0203 32.2-6.09e-4 10.3 0.00448 20.7 0.0128 31 0.00354 4.4 0.00536 8.8 0.00589 13.2 1e-3 5.17 0.00708 10.3 0.0172 15.5 0.00293 1.9 0.00415 3.8 0.00357 5.7-4.88e-4 2.58 0.00514 5.17 0.0124 7.75-0.00155 0.76-0.0031 1.52-0.00469 2.3-0.0498 3.83-0.0498 3.83 1.14 7.41 1.65-0.33 3.3-0.66 5-1v-2c1.18-0.464 1.18-0.464 2.38-0.938 2.55-0.991 2.55-0.991 4.62-2.06v-2c0.887-0.247 1.77-0.495 2.69-0.75 3.49-1.32 5.44-2.91 8.31-5.25 6.45-4.37 13.1-8.32 20-12v-2c0.818-0.238 0.818-0.238 1.65-0.48 5.95-1.84 11-4.41 16.3-7.52 13.2-7.51 27-13 41.2-18.3 1.68-0.637 3.34-1.31 5-1.99 9.51-3.8 19.2-6.65 29.1-9.4 0.687-0.192 1.37-0.384 2.08-0.582 4.55-1.27 9.11-2.51 13.7-3.73 1.04-0.284 2.08-0.568 3.16-0.861 7.59-2 15.2-3.2 23-4.26 2.4-0.333 4.8-0.669 7.2-1.01 1.04-0.143 2.09-0.286 3.16-0.434 2.5-0.306 2.5-0.306 4.52-1.43 16-2.5 32.4-2.31 48.5-2.26 3.78 0.0107 7.57 4.38e-5 11.4-0.0127 20.3-0.0119 40.7 0.373 60.7 4.55 3.4 0.705 6.78 1.23 10.2 1.72 6.21 0.927 12.2 2.36 18.2 4 1.32 0.356 1.32 0.356 2.67 0.719 1.78 0.484 3.56 0.972 5.34 1.46 2.24 0.611 4.49 1.2 6.73 1.79 0.98 0.255 0.98 0.255 1.98 0.516 1.87 0.486 3.73 0.967 5.6 1.45 3.27 0.945 6.38 2.03 9.55 3.25 3.07 1.17 6.18 2.23 9.28 3.31 13.7 4.74 26.9 9.81 39.8 16.4 2.8 1.43 5.62 2.83 8.44 4.22 16.7 8.28 32.4 18 47.7 28.7 0.722 0.502 1.44 1 2.19 1.52 1.46 1.01 2.91 2.03 4.36 3.05 0.669 0.466 1.34 0.931 2.03 1.41 0.603 0.423 1.21 0.845 1.83 1.28 1.54 1.08 1.54 1.08 3.55 0.915 0.132-18.4 0.262-36.8 0.391-55.2 0.0599-8.55 0.12-17.1 0.182-25.7 0.0537-7.48 0.106-15 0.158-22.4 0.0273-3.94 0.055-7.88 0.0838-11.8 0.075-10.3 0.139-20.6 0.185-30.8 0.0053-1.18 0.0053-1.18 0.0107-2.38 0.021-4.87 0.0363-9.74 0.0449-14.6 0.00319-1.53 0.00764-3.06 0.0135-4.59 0.196-53.8-11.3-109-44.1-152-0.928-1.26-1.86-2.52-2.79-3.78-7.28-9.82-14.5-19.6-23.2-28.2-0.89-1.07-1.77-2.15-2.62-3.25-3.35-3.96-7.26-7.06-11.3-10.3-2.7-2.17-5.34-4.4-7.96-6.66-41.7-35.8-97.6-55.3-152-55.1-2.85 0.0107-5.7 3e-5 -8.55-0.0127-14.6-0.0117-28.8 1.07-43.1 4.02zm6.75 381c-1.48 0.239-2.98 0.421-4.47 0.578-0.952 0.106-1.9 0.213-2.88 0.322-1.04 0.115-2.08 0.231-3.15 0.35-9.06 1.07-18 2.46-26.9 4.25-1.53 0.302-1.53 0.302-3.1 0.61-6 1.23-11.7 2.85-17.5 4.89-2.08 0.655-4.16 1.3-6.25 1.94-1.1 0.339-2.21 0.678-3.35 1.03-2.26 0.686-4.51 1.37-6.77 2.04-6.71 2.01-13.2 4.29-19.6 7-0.922 0.369-1.84 0.737-2.79 1.12-6.83 2.76-13.4 5.92-20 9.26-2.62 1.31-5.24 2.53-7.94 3.69-5.29 2.3-10.3 5.13-15.3 7.94-0.786 0.424-1.57 0.848-2.38 1.29-5.43 2.94-10.5 6.24-15.6 9.71-2.02 1.36-4.04 2.71-6.06 4.06-1.52 1.01-1.52 1.01-3.06 2.05-3.04 2-6.12 3.92-9.25 5.79-1.65 1.05-1.65 1.05-2.94 2.44-2.46 2.44-5.23 4.46-7.99 6.54-4.32 3.28-8.54 6.63-12.7 10.1-0.771 0.643-1.54 1.29-2.34 1.95-0.673 0.574-1.35 1.15-2.04 1.74-0.688 0.581-1.38 1.16-2.09 1.76-1.77 1.42-1.77 1.42-1.54 3.55-0.701 0.186-1.4 0.371-2.12 0.562-3.4 1.7-4.93 3.67-7.28 6.59-1.55 1.79-3.12 3.19-4.97 4.66-3.86 3.17-6.74 6.95-9.79 10.9-2.1 2.65-4.41 4.95-6.83 7.31-6.27 6.61-11.8 13.5-17 21l-1.91 2.74c-1.19 1.7-2.37 3.4-3.55 5.11-1.54 2.15-1.54 2.15-3.85 4.9-1.97 2.62-2.81 5.11-3.69 8.25h-2l-1.57 2.78c-6.34 11.2-6.34 11.2-8.93 15.2-6.44 10.2-11.6 21.1-16.5 32.1l-1.27 2.69c-5.24 11.2-9.41 22.7-12.9 34.5-0.859 2.77-0.859 2.77-1.82 5.04-1.52 3.99-2.47 8.09-3.48 12.2-0.221 0.901-0.442 1.8-0.67 2.73-0.438 1.79-0.875 3.58-1.31 5.38-0.468 1.92-0.949 3.84-1.43 5.75-10.8 43.9-11.3 89-6.15 134 0.182 1.71 0.363 3.42 0.543 5.13 0.413 3.5 1.06 6.77 1.87 10.2 0.595 2.71 1.08 5.42 1.55 8.16 1.51 8.62 3.75 16.9 6.34 25.2 0.747 2.44 1.47 4.88 2.19 7.32 4.03 13.7 8.4 27 14.5 40 0.752 1.67 1.5 3.33 2.25 5 2.42 5.31 4.89 10.6 7.38 15.9 0.384 0.821 0.769 1.64 1.17 2.49 1.9 4.01 3.85 7.87 6.21 11.6 0.881 1.49 1.76 2.98 2.64 4.48 7.23 12.2 7.23 12.2 15.4 23.9 1.97 2.61 3.87 5.26 5.76 7.92 6.24 9.17 6.24 9.17 13.2 17.7h2c0.362 0.822 0.362 0.822 0.73 1.66 1.57 2.89 3.49 5.24 5.58 7.78 0.759 0.927 1.52 1.85 2.3 2.81 2.36 2.72 4.82 5.23 7.39 7.75 1.16 1.17 2.33 2.35 3.49 3.52 6.33 6.38 12.6 12.7 19.5 18.5 1.07 0.931 2.14 1.86 3.2 2.8 7.02 6.12 14.2 11.8 21.8 17.2 1.94 1.41 3.88 2.83 5.81 4.25 7.79 5.7 16 10.7 24.2 15.8 0.884 0.541 1.77 1.08 2.68 1.64 10.8 6.54 21.8 12.2 33.3 17.4 0.662 0.301 1.32 0.602 2.01 0.912 8.23 3.73 16.5 7.08 25 10 2.21 0.782 4.38 1.67 6.53 2.61 12.3 5.14 26 8.62 39.1 10.9 2.34 0.492 2.34 0.492 5.63 1.48 4.52 1.23 8.99 1.77 13.6 2.31 4.98 0.605 4.98 0.605 6.08 1.7 2.86 0.377 5.71 0.695 8.59 0.973 0.882 0.0877 1.76 0.175 2.67 0.266 19.3 1.88 38.4 3.73 57.7 2.76 0.708-0.0339 1.42-0.0679 2.15-0.103 25.8-1.26 51.9-3.4 76.9-10.9 2.46-0.613 4.91-1.22 7.38-1.81 5.95-1.47 11.9-3.05 17.8-4.75 0.698-0.198 1.4-0.395 2.11-0.599 4.18-1.23 7.9-2.84 11.8-4.84 1.74-0.676 3.49-1.32 5.25-1.94 9.62-3.44 18.7-7.44 27.8-12.1 2.02-1.02 4.04-2.03 6.07-3.03 12.7-6.3 25-13.1 36.9-20.9v-2c0.828-0.217 1.66-0.433 2.51-0.656 4.35-1.67 7.66-4.06 11.4-6.84 0.688-0.499 1.38-0.998 2.09-1.51 1.72-1.27 3.39-2.63 5.04-3.99v-2c0.721-0.237 1.44-0.474 2.18-0.719 3.26-1.48 5.29-3.32 7.88-5.78 2.91-2.76 5.37-4.73 8.94-6.5 1.6-1.6 1.6-1.6 3-3.44 2.15-2.62 4.26-4.56 7-6.56v-2c0.55-0.224 1.1-0.449 1.67-0.68 3.06-1.73 5.18-3.94 7.64-6.45 0.484-0.491 0.968-0.983 1.47-1.49 4.91-5.03 9.49-10.3 14-15.7 1.69-2.02 3.39-3.83 5.25-5.69 3.32-3.86 6.42-7.84 9.46-11.9 1.54-2.08 3.11-4.14 4.67-6.2 4.69-5.47 4.69-5.47 6.88-11.9h2c1.51-2.27 2.89-4.52 4.25-6.88 0.812-1.39 1.62-2.77 2.44-4.16 0.396-0.681 0.791-1.36 1.2-2.06 1.43-2.44 2.89-4.86 4.36-7.28 8.36-14 15.5-28.6 21.8-43.6 0.271-0.639 0.541-1.28 0.82-1.94 5.91-14.3 10.7-29 14.6-44 0.543-2.04 1.11-4.07 1.68-6.1 1.93-6.91 3.45-13.7 4.38-20.8 0.39-2.53 0.874-4.95 1.45-7.45 10.6-46.7 9.6-109-5.96-155-0.6-2.41-1.18-4.83-1.75-7.25-5.45-22.3-14-44.3-24.2-64.8-0.535-1.07-0.535-1.07-1.08-2.15-9.55-18.9-20.4-36.8-32.9-53.8-0.621-0.85-0.621-0.85-1.25-1.72-5.34-7.3-11-14.3-16.7-21.3-0.53-0.666-1.06-1.33-1.61-2.02-1.09-1.36-2.23-2.68-3.39-3.98h-2c-0.165-0.681-0.33-1.36-0.5-2.06-1.85-3.62-4.22-5.54-7.33-8.09-3.1-2.64-5.9-5.55-8.75-8.46-8.76-9.2-8.76-9.2-18.7-17.1-1.75-1.31-1.75-1.31-4-3.61-3.19-3.14-6.59-5.74-10.2-8.39-0.698-0.518-1.4-1.04-2.11-1.57-2.14-1.59-4.29-3.17-6.45-4.74-0.659-0.483-1.32-0.966-2-1.46-1.85-1.35-3.71-2.7-5.57-4.04-0.546-0.397-1.09-0.793-1.66-1.2-3.21-2.29-6.49-4.32-9.93-6.24-1.99-1.14-3.93-2.35-5.87-3.57-9.41-5.93-18.9-11-29-15.6-3.02-1.4-5.95-2.94-8.9-4.47-8.11-4.09-16.5-7.29-25.1-10.4-0.837-0.315-1.67-0.629-2.53-0.953-7.14-2.65-14.4-4.94-21.7-7.11-1.18-0.351-2.36-0.701-3.57-1.06-7.82-2.28-15.6-4.13-23.6-5.4-2.65-0.473-2.65-0.473-3.65-1.47-2.27-0.359-4.56-0.66-6.84-0.938-0.684-0.085-1.37-0.17-2.07-0.258-2.19-0.272-4.39-0.539-6.58-0.805-2.89-0.349-5.77-0.704-8.66-1.06-1.29-0.156-2.57-0.312-3.9-0.473-2.94-0.465-2.94-0.465-3.94-1.46-12.4-1.57-25.1-1.15-37.5-1.13-3.47 0.00536-6.94 2.64e-5 -10.4-0.00635-18.4-1.59-18.4-1.59-35.1 2.14z" fill="#000100"/>
<path transform="translate(800 922)" d="m0 0c0.933-0.00773 1.87-0.0155 2.83-0.0234 13.6 0.038 25.3 4.11 36.2 12.3 0.656 0.49 1.31 0.98 1.99 1.48 13.7 11.1 21.1 26 24.8 43 1.43 20.4-2.01 35.7-13.8 52.6-3.96 5.94-1.17 14.5 0.121 21.2 0.432 2.1 0.871 4.19 1.32 6.28 1.52 7.28 2.93 14.6 4.12 21.9 0.488 2.88 1.11 5.7 1.82 8.54 2.74 11.6 4.75 23.3 6.89 35 0.216 1.18 0.432 2.36 0.655 3.57 0.418 2.28 0.833 4.57 1.25 6.85 1.2 6.58 2.59 13.1 4.12 19.6 6.83 29.1 6.83 29.1 4.72 41.1-3.05 4.63-5.84 7.06-11 9-4.19 0.441-8.37 0.41-12.6 0.388-1.9 0.00789-1.9 0.00789-3.84 0.0159-3.46 0.0136-6.92 0.00839-10.4-0.00114-3.63-0.00762-7.26-5.45e-4 -10.9 0.00416-6.1 0.00545-12.2-0.00172-18.3-0.016-7.04-0.0163-14.1-0.011-21.1 0.00548-6.05 0.0136-12.1 0.0155-18.2 0.00768-3.61-0.00466-7.22-0.00534-10.8 0.00461-4.03 0.0103-8.06-0.00402-12.1-0.0207-1.78 0.00911-1.78 0.00911-3.6 0.0184-7.16-0.0548-13.6-0.35-19.3-5.18-4.67-6.79-4.94-13.2-3.91-21.2 0.688-2.91 1.44-5.79 2.2-8.68 1.42-5.86 2.33-11.8 3.3-17.8 1.36-8.28 2.88-16.4 4.83-24.6 0.909-3.98 1.56-7.98 2.17-12 0.796-5.03 1.68-9.95 3-14.9 1.59-5.96 2.46-12 3.37-18.1 0.834-5.47 2-10.7 3.44-16.1 1.07-4.51 1.6-9.08 2.16-13.7 0.531-3.25 1.47-6.12 2.53-9.23 0.981-4.84 0.801-8.55-1.61-12.9-1.4-2.04-2.83-4.06-4.29-6.07-9.74-13.9-12.2-31-9.53-47.6 1.86-7.85 4.79-14.7 9.17-21.4 1.17-1.85 2.22-3.74 3.25-5.67 2.05-3.39 4.07-5.66 7-8.31 0.514-0.472 1.03-0.944 1.56-1.43 13.5-12 28.4-18 46.4-17.8z" fill="#000100"/>
<path transform="translate(815 962)" d="m0 0c8.16 6.49 12.8 13.8 14.5 24.1 0.529 8.37-2.57 17.1-7.91 23.5-0.825 0.66-1.65 1.32-2.5 2-6.54 6.11-6.54 6.11-9.01 14.5 0.0206 6.7 1.12 13.5 2.99 19.9 1.39 4.93 2.1 9.9 2.88 15 0.534 3.38 1.12 6.58 2.08 9.87 1.62 5.81 2.54 11.7 3.56 17.7 1.82 10.6 1.82 10.6 4.03 21 0.857 3.76 1.6 7.55 2.35 11.3 0.169 0.85 0.339 1.7 0.513 2.58 1.28 6.47 2.55 12.9 3.8 19.4 0.167 0.856 0.334 1.71 0.505 2.59 0.745 3.9 1.41 7.76 1.86 11.7 0.0692 3.28 0.0692 3.28 1.45 4.45v5h-73c-1.4-2.8-0.727-4.56-0.188-7.62 0.171-1 0.343-2.01 0.52-3.04 0.482-2.41 1.04-4.8 1.65-7.17 1.11-4.35 1.83-8.73 2.52-13.2 0.236-1.52 0.476-3.04 0.719-4.56 0.102-0.661 0.205-1.32 0.311-2 0.543-2.81 1.26-5.56 1.96-8.33 0.784-3.25 1.36-6.53 1.94-9.82 0.188-1.05 0.188-1.05 0.381-2.13 0.397-2.22 0.79-4.44 1.18-6.65 0.518-2.93 1.04-5.85 1.56-8.78 0.228-1.29 0.456-2.58 0.691-3.91 0.534-2.73 1.12-5.38 1.8-8.06 1.21-4.79 1.78-9.58 2.38-14.5 0.562-3.27 0.562-3.27 1.53-5.62 1.5-3.85 1.95-7.76 2.53-11.8 0.779-5.22 1.56-10.4 2.69-15.6 1.33-6.58 1.32-11.4-1.91-17.4-2.01-2.92-4.47-4.69-7.27-6.85-1.39-1.62-2.73-3.29-4-5-0.557-0.681-1.11-1.36-1.69-2.06-2.79-4.13-2.48-8.51-2.5-13.4-0.0142-1.3-0.0284-2.6-0.043-3.93 0.218-3.44 0.741-5.57 2.23-8.63 0.536-1.11 1.07-2.23 1.62-3.38 3.96-6.74 10.1-11.1 17.4-13.6 8.3-1.93 16.5-2.44 23.9 2.33z" fill="#C2E0A7"/>
</svg>