<?xml version="1.0" encoding="UTF-8"?>
<svg width="21px" height="18px" viewBox="0 0 21 18" version="1.1" xmlns="http://www.w3.org/2000/svg" xmlns:xlink="http://www.w3.org/1999/xlink">
    <!-- Generator: Sketch 63.1 (92452) - https://sketch.com -->
    <title>icSyncArrows</title>
    <desc>Created with Sketch.</desc>
    <g id="Admin" stroke="none" stroke-width="1" fill="none" fill-rule="evenodd">
        <g id="Sync-in-progress-overlay" transform="translate(-951.000000, -350.000000)" fill="#FFFFFF" fill-rule="nonzero">
            <g id="Attach-Resources" transform="translate(665.000000, 228.000000)">
                <g id="Group-3">
                    <g id="icSync" transform="translate(235.000000, 51.000000)">
                        <path d="M54.3316083,76.1649417 C54.8849583,75.611875 55.7819917,75.611875 56.3352,76.1649417 L56.3352,76.1649417 L59.1685333,78.998275 C59.7217417,79.551625 59.7217417,80.4486583 59.1685333,81.0018667 C58.6151833,81.5549333 57.7182917,81.555075 57.1649417,81.0018667 L57.1649417,81.0018667 L56.7842833,80.6212083 C57.0829167,83.38215 59.4146083,85.6666667 62.4166667,85.6666667 C63.1990917,85.6666667 63.8333333,86.30105 63.8333333,87.0833333 C63.8333333,87.8656167 63.1990917,88.5 62.4166667,88.5 C57.7685833,88.5 54.2168583,84.8612917 53.9367833,80.56695 L53.9367833,80.56695 L53.5018667,81.0018667 C52.9485167,81.5549333 52.0514833,81.5549333 51.498275,81.0018667 C50.9450667,80.4485167 50.9450667,79.5514833 51.498275,78.998275 L51.498275,78.998275 Z M60.2916667,71.5 C64.940175,71.5 68.4917583,75.1391333 68.7716917,79.4331917 L68.7716917,79.4331917 L69.20675,78.998275 C69.7598167,78.4450667 70.65685,78.4450667 71.2102,78.9981333 C71.7632667,79.5514833 71.7632667,80.4485167 71.2102,81.001725 L71.2102,81.001725 L68.3768667,83.8350583 C67.823375,84.388125 66.9264833,84.3882667 66.373275,83.8350583 L66.373275,83.8350583 L63.5399417,81.001725 C62.9865917,80.448375 62.9865917,79.5513417 63.5399417,78.9981333 C64.09315,78.4450667 64.9901833,78.4450667 65.5435333,78.9981333 L65.5435333,78.9981333 L65.92405,79.37865 C65.6257,76.6172833 63.2934417,74.3333333 60.2916667,74.3333333 C59.5093833,74.3333333 58.875,73.69895 58.875,72.9166667 C58.875,72.1343833 59.5093833,71.5 60.2916667,71.5 Z" id="icSyncArrows"></path>
                    </g>
                </g>
            </g>
        </g>
    </g>
</svg>